<svg xmlns="http://www.w3.org/2000/svg" version="1.1" xmlns:xlink="http://www.w3.org/1999/xlink" xmlns:svgjs="http://svgjs.dev/svgjs" width="2000" height="1500" viewBox="0 0 2000 1500"><rect width="2000" height="1500" fill="#ffffff"></rect><g transform="matrix(0.75,0,0,0.75,249.090909090909,546.5971585442795)"><svg viewBox="0 0 396 107" data-background-color="#ffffff" preserveAspectRatio="xMidYMid meet" height="540" width="2000" xmlns="http://www.w3.org/2000/svg" xmlns:xlink="http://www.w3.org/1999/xlink"><g id="tight-bounds" transform="matrix(1,0,0,1,0.2400000000000091,0.23852848336318289)"><svg viewBox="0 0 395.52 106.52294303327365" height="106.52294303327365" width="395.52"><g><svg viewBox="0 0 583.8296543851733 157.23921170916176" height="106.52294303327365" width="395.52"><g transform="matrix(1,0,0,1,188.3096543851733,45.71659720904774)"><svg viewBox="0 0 395.52 65.80601729106628" height="65.80601729106628" width="395.52"><g id="textblocktransform"><svg viewBox="0 0 395.52 65.80601729106628" height="65.80601729106628" width="395.52" id="textblock"><g><svg viewBox="0 0 395.52 65.80601729106628" height="65.80601729106628" width="395.52"><g transform="matrix(1,0,0,1,0,0)"><svg width="395.52" viewBox="-2.4 -32.75 259.12 43.30000000000001" height="65.80601729106628" data-palette-color="#3cd356"><g class="wordmark-text-0" data-fill-palette-color="primary" id="text-0"><path d="M2.95-30.8L6.55-30.8 6.55-27.05 2.95-27.05 2.95-30.8ZM-0.95 10.55L-2.4 8Q0.1 6.7 1.28 5.3 2.45 3.9 2.8 1.9 3.15-0.1 3.15-3.2L3.15-3.2 3.15-19.35 2.15-22.5 6.35-22.5 6.35-3.2Q6.35 0.15 5.85 2.65 5.35 5.15 3.8 7.05 2.25 8.95-0.95 10.55L-0.95 10.55ZM12.05-1.75L12.05-13.25Q12.05-14.2 12.1-15.5 12.15-16.8 12.57-18.2 13-19.6 14.1-20.8L14.1-20.8Q15.5-22.3 17.17-22.65 18.85-23 20.1-23L20.1-23Q21.4-23 23.05-22.65 24.7-22.3 26.1-20.8L26.1-20.8Q27.2-19.6 27.62-18.2 28.05-16.8 28.1-15.5 28.15-14.2 28.15-13.25L28.15-13.25 28.15-5.1 29.85-3.05Q27.85-1.3 25.45-0.4 23.05 0.5 20.1 0.5L20.1 0.5Q17.2 0.5 15.22-0.23 13.25-0.95 12.05-1.75L12.05-1.75ZM15.25-13.35L15.25-3.8Q16.4-3 17.7-2.75 19-2.5 20.1-2.5L20.1-2.5Q21.2-2.5 22.52-2.75 23.85-3 24.95-3.8L24.95-3.8 24.95-13.35Q24.95-14.45 24.82-15.85 24.7-17.25 23.95-18.3L23.95-18.3Q23.6-18.8 22.7-19.4 21.8-20 20.1-20L20.1-20Q18.4-20 17.52-19.4 16.65-18.8 16.25-18.3L16.25-18.3Q15.5-17.25 15.37-15.85 15.25-14.45 15.25-13.35L15.25-13.35ZM49.8-4.25L51-1.8Q49.7-1 47.55-0.25 45.39 0.5 42.34 0.5L42.34 0.5Q41.09 0.5 39.59 0.23 38.09-0.05 36.77-0.9 35.45-1.75 34.59-3.45L34.59-3.45Q34.3-4.2 34.09-5.25 33.89-6.3 33.8-8 33.7-9.7 33.7-12.35L33.7-12.35 33.7-22.5 36.89-22.5 36.89-12.25Q36.89-8.95 37.07-7.23 37.24-5.5 37.84-4.55L37.84-4.55Q38.3-3.9 39.37-3.2 40.45-2.5 42.59-2.5L42.59-2.5Q43.8-2.5 44.8-2.7 45.8-2.9 46.59-3.25L46.59-3.25 46.59-22.5 49.8-22.5 49.8-4.25ZM56.14 0L56.14-16.65 54.69-18.9Q56.89-20.75 59.57-21.68 62.24-22.6 64.99-23L64.99-23 65.54-20Q63.14-19.65 61.69-19.18 60.24-18.7 59.34-18.2L59.34-18.2 59.34 0 56.14 0ZM69.59-18.25L68.44-20.7Q69.74-21.5 71.89-22.25 74.04-23 77.04-23L77.04-23Q78.34-23 79.82-22.73 81.29-22.45 82.64-21.63 83.99-20.8 84.84-19.05L84.84-19.05Q85.19-18.3 85.37-17.25 85.54-16.2 85.64-14.53 85.74-12.85 85.74-10.15L85.74-10.15 85.74 0 82.54 0 82.54-10.25Q82.54-13.55 82.37-15.28 82.19-17 81.59-17.95L81.59-17.95Q81.14-18.65 80.07-19.33 78.99-20 76.84-20L76.84-20Q75.64-20 74.64-19.8 73.64-19.6 72.79-19.25L72.79-19.25 72.79 0 69.59 0 69.59-18.25ZM106.69-10.35L94.49-10.35 94.49-3.8Q95.64-3 96.99-2.75 98.34-2.5 99.49-2.5L99.49-2.5Q101.64-2.5 103.36-2.98 105.09-3.45 106.69-4.55L106.69-4.55 106.69-1.2Q105.19-0.3 103.41 0.1 101.64 0.5 99.59 0.5L99.59 0.5Q96.39 0.5 93.96-0.4 91.54-1.3 89.54-3.05L89.54-3.05 91.29-5.1 91.29-13.25Q91.29-14.2 91.31-15.5 91.34-16.8 91.74-18.2 92.14-19.6 93.19-20.8L93.19-20.8Q94.54-22.3 96.11-22.65 97.69-23 98.94-23L98.94-23Q100.24-23 101.81-22.65 103.39-22.3 104.69-20.8L104.69-20.8Q105.74-19.6 106.16-18.2 106.59-16.8 106.64-15.5 106.69-14.2 106.69-13.25L106.69-13.25 106.69-10.35ZM94.49-13.35L103.19-13.35Q103.19-14.45 103.09-15.85 102.99-17.25 102.29-18.3L102.29-18.3Q101.99-18.8 101.19-19.4 100.39-20 98.84-20L98.84-20Q97.34-20 96.51-19.4 95.69-18.8 95.34-18.3L95.34-18.3Q94.69-17.25 94.59-15.85 94.49-14.45 94.49-13.35L94.49-13.35ZM110.29-22.35L113.44-23 117.19-7Q117.59-5.3 118.31-3.95 119.04-2.6 120.69-2.5L120.69-2.5Q120.84-2.5 121.01-2.5 121.19-2.5 121.39-2.55L121.39-2.55 126.14-23 129.29-22.35 121.59 10.55 118.49 9.85 120.64 0.5Q117.99 0.4 116.44-1.25 114.89-2.9 114.09-6.25L114.09-6.25 110.29-22.35Z" fill="#3cd356" data-fill-palette-color="primary"></path><path d="M141.54-30.8L145.14-30.8 145.14-27.05 141.54-27.05 141.54-30.8ZM137.64 10.55L136.19 8Q138.69 6.7 139.86 5.3 141.04 3.9 141.39 1.9 141.74-0.1 141.74-3.2L141.74-3.2 141.74-19.35 140.74-22.5 144.94-22.5 144.94-3.2Q144.94 0.15 144.44 2.65 143.94 5.15 142.39 7.05 140.84 8.95 137.64 10.55L137.64 10.55ZM166.84-4.25L168.04-1.8Q166.74-1 164.59-0.25 162.43 0.5 159.38 0.5L159.38 0.5Q158.13 0.5 156.63 0.23 155.13-0.05 153.81-0.9 152.49-1.75 151.63-3.45L151.63-3.45Q151.34-4.2 151.13-5.25 150.93-6.3 150.84-8 150.74-9.7 150.74-12.35L150.74-12.35 150.74-22.5 153.93-22.5 153.93-12.25Q153.93-8.95 154.11-7.23 154.29-5.5 154.88-4.55L154.88-4.55Q155.34-3.9 156.41-3.2 157.49-2.5 159.63-2.5L159.63-2.5Q160.84-2.5 161.84-2.7 162.84-2.9 163.63-3.25L163.63-3.25 163.63-22.5 166.84-22.5 166.84-4.25ZM189.48-20.85L188.33-18.2 188.33-14.05Q188.33-10.4 186.16-8.2 183.98-6 180.13-6L180.13-6Q179.78-6 179.43-6.03 179.08-6.05 178.83-6.1L178.83-6.1 178.83-3 181.48-3Q183.53-3 185.46-2.45 187.38-1.9 188.61-0.5 189.83 0.9 189.83 3.45L189.83 3.45 189.83 4.65 191.53 6.7Q189.43 8.6 186.71 9.58 183.98 10.55 180.98 10.55L180.98 10.55Q175.23 10.55 171.08 7.25L171.08 7.25 172.78 4.7Q175.13 6.4 176.91 6.98 178.68 7.55 180.98 7.55L180.98 7.55Q182.93 7.55 184.33 7.1 185.73 6.65 186.63 6.05L186.63 6.05 186.63 5Q186.63 2.5 185.61 1.25 184.58 0 181.48 0L181.48 0 175.58 0 175.58-6.85Q173.78-7.7 172.83-9.45 171.88-11.2 171.88-13.55L171.88-13.55 171.88-15.3Q171.88-17.9 173.08-19.6 174.28-21.3 176.31-22.15 178.33-23 180.78-23L180.78-23Q184.03-23 186.18-22.23 188.33-21.45 189.48-20.85L189.48-20.85ZM185.13-14.1L185.13-19.05Q184.28-19.45 183.13-19.73 181.98-20 180.48-20L180.48-20Q178.13-20 176.61-18.78 175.08-17.55 175.08-15.3L175.08-15.3 175.08-13.55Q175.08-11.4 176.46-10.2 177.83-9 180.03-9L180.03-9Q182.33-9 183.68-10.3 185.03-11.6 185.13-14.1L185.13-14.1ZM210.63-20.85L209.48-18.2 209.48-14.05Q209.48-10.4 207.31-8.2 205.13-6 201.28-6L201.28-6Q200.93-6 200.58-6.03 200.23-6.05 199.98-6.1L199.98-6.1 199.98-3 202.63-3Q204.68-3 206.61-2.45 208.53-1.9 209.76-0.5 210.98 0.9 210.98 3.45L210.98 3.45 210.98 4.65 212.68 6.7Q210.58 8.6 207.86 9.58 205.13 10.55 202.13 10.55L202.13 10.55Q196.38 10.55 192.23 7.25L192.23 7.25 193.93 4.7Q196.28 6.4 198.06 6.98 199.83 7.55 202.13 7.55L202.13 7.55Q204.08 7.55 205.48 7.1 206.88 6.65 207.78 6.05L207.78 6.05 207.78 5Q207.78 2.5 206.76 1.25 205.73 0 202.63 0L202.63 0 196.73 0 196.73-6.85Q194.93-7.7 193.98-9.45 193.03-11.2 193.03-13.55L193.03-13.55 193.03-15.3Q193.03-17.9 194.23-19.6 195.43-21.3 197.46-22.15 199.48-23 201.93-23L201.93-23Q205.18-23 207.33-22.23 209.48-21.45 210.63-20.85L210.63-20.85ZM206.28-14.1L206.28-19.05Q205.43-19.45 204.28-19.73 203.13-20 201.63-20L201.63-20Q199.28-20 197.76-18.78 196.23-17.55 196.23-15.3L196.23-15.3 196.23-13.55Q196.23-11.4 197.61-10.2 198.98-9 201.18-9L201.18-9Q203.48-9 204.83-10.3 206.18-11.6 206.28-14.1L206.28-14.1ZM214.18-32.75L218.38-32.75 218.38-12.95Q218.38-10.2 218.65-8.33 218.93-6.45 219.98-5 221.03-3.55 223.33-2.15L223.33-2.15 221.68 0.5Q218.93-0.95 217.53-2.78 216.13-4.6 215.65-7.05 215.18-9.5 215.18-12.95L215.18-12.95 215.18-29.6 214.18-32.75ZM241.68-10.35L229.48-10.35 229.48-3.8Q230.63-3 231.98-2.75 233.33-2.5 234.48-2.5L234.48-2.5Q236.63-2.5 238.35-2.98 240.08-3.45 241.68-4.55L241.68-4.55 241.68-1.2Q240.18-0.3 238.4 0.1 236.63 0.5 234.58 0.5L234.58 0.5Q231.38 0.5 228.95-0.4 226.53-1.3 224.53-3.05L224.53-3.05 226.28-5.1 226.28-13.25Q226.28-14.2 226.3-15.5 226.33-16.8 226.73-18.2 227.13-19.6 228.18-20.8L228.18-20.8Q229.53-22.3 231.1-22.65 232.68-23 233.93-23L233.93-23Q235.23-23 236.8-22.65 238.38-22.3 239.68-20.8L239.68-20.8Q240.73-19.6 241.15-18.2 241.58-16.8 241.63-15.5 241.68-14.2 241.68-13.25L241.68-13.25 241.68-10.35ZM229.48-13.35L238.18-13.35Q238.18-14.45 238.08-15.85 237.98-17.25 237.28-18.3L237.28-18.3Q236.98-18.8 236.18-19.4 235.38-20 233.83-20L233.83-20Q232.33-20 231.5-19.4 230.68-18.8 230.33-18.3L230.33-18.3Q229.68-17.25 229.58-15.85 229.48-14.45 229.48-13.35L229.48-13.35ZM247.32 0L247.32-16.65 245.87-18.9Q248.07-20.75 250.75-21.68 253.42-22.6 256.17-23L256.17-23 256.72-20Q254.32-19.65 252.87-19.18 251.42-18.7 250.52-18.2L250.52-18.2 250.52 0 247.32 0Z" fill="#08c076" data-fill-palette-color="secondary"></path></g></svg></g></svg></g></svg></g></svg></g><g><svg viewBox="0 0 157.23921170916176 157.23921170916176" height="157.23921170916176" width="157.23921170916176"><g><svg></svg></g><g id="icon-0"><svg viewBox="0 0 157.23921170916176 157.23921170916176" height="157.23921170916176" width="157.23921170916176"><g><path d="M0 78.62c0-43.42 35.199-78.62 78.62-78.62 43.42 0 78.62 35.199 78.619 78.62 0 43.42-35.199 78.62-78.619 78.619-43.42 0-78.62-35.199-78.62-78.619zM78.62 151.305c40.143 0 72.685-32.542 72.685-72.685 0-40.143-32.542-72.685-72.685-72.686-40.143 0-72.685 32.542-72.686 72.686 0 40.143 32.542 72.685 72.686 72.685z" data-fill-palette-color="accent" fill="#08c076" stroke="transparent"></path></g><g transform="matrix(1,0,0,1,35.86539608586472,35.86539608586472)"><svg viewBox="0 0 85.50841953743233 85.50841953743233" height="85.50841953743233" width="85.50841953743233"><g><svg xmlns="http://www.w3.org/2000/svg" xmlns:xlink="http://www.w3.org/1999/xlink" version="1.1" x="0" y="0" viewBox="0 0 100 100" enable-background="new 0 0 100 100" xml:space="preserve" height="85.50841953743233" width="85.50841953743233" class="icon-dxe-0" data-fill-palette-color="accent" id="dxe-0"><g fill="#08c076" data-fill-palette-color="accent"><g fill="#08c076" data-fill-palette-color="accent"><path d="M92.727 64.732C92.149 62.505 89.838 57.553 85.883 57.553 81.93 57.553 80.381 59.176 76.457 59.176 72.535 59.176 71.289 46.657 65.207 46.657S59.43 56.244 51.978 56.244C35.833 56.244 41.64 39.49 29.933 39.49S20.668 60.5 5 64.71" fill="#08c076" data-fill-palette-color="accent"></path></g><g fill="#08c076" data-fill-palette-color="accent"><g fill="#08c076" data-fill-palette-color="accent"><g fill="#08c076" data-fill-palette-color="accent"><path fill="none" stroke="#08C076" stroke-miterlimit="10" d="M93.336 54.078A10 10 0 0 0 93.027 53.685"></path><path fill="none" stroke="#08C076" stroke-miterlimit="10" stroke-dasharray="0.9939,0.9939" d="M92.358 52.953C91.232 51.847 89.77 51.006 87.98 51.006 83.923 51.006 82.334 52.42 78.31 52.42 74.285 52.42 73.005 41.512 66.767 41.512S60.839 49.866 53.197 49.866C36.633 49.866 42.592 35.267 30.58 35.267 18.803 35.267 21.553 51.039 5.944 56.905"></path><path fill="none" stroke="#08C076" stroke-miterlimit="10" d="M5.475 57.077C5.318 57.132 5.16 57.187 5 57.24"></path><g fill="#08c076" data-fill-palette-color="accent"><polygon points="95.067,52.274 95,57.26 90.717,54.709      " fill="#08c076" data-fill-palette-color="accent"></polygon></g></g></g></g></g></svg></g></svg></g></svg></g></svg></g></svg></g><defs></defs></svg><rect width="395.52" height="106.52294303327365" fill="none" stroke="none" visibility="hidden"></rect></g></svg></g></svg>